<mxfile host="app.diagrams.net" modified="2023-06-27T13:57:39.592Z" agent="Mozilla/5.0 (Macintosh; Intel Mac OS X 10_15_7) AppleWebKit/537.36 (KHTML, like Gecko) Chrome/114.0.0.0 Safari/537.36" etag="1sUWmO5ifoZCAcgtcOVp" version="21.5.0" type="github">
  <diagram id="6a731a19-8d31-9384-78a2-239565b7b9f0" name="Page-1">
    <mxGraphModel dx="2363" dy="1106" grid="1" gridSize="10" guides="1" tooltips="1" connect="1" arrows="1" fold="1" page="1" pageScale="1" pageWidth="1169" pageHeight="827" background="#FFFFFF" math="0" shadow="0">
      <root>
        <mxCell id="0" />
        <mxCell id="1" parent="0" />
        <mxCell id="2019" value="" style="rounded=0;whiteSpace=wrap;html=1;strokeColor=default;strokeWidth=1;fillColor=#F0F0F0;fontFamily=Verdana;fontSize=12;fontColor=#00BEF2" parent="1" vertex="1">
          <mxGeometry x="34.379999999999995" y="190" width="180" height="580" as="geometry" />
        </mxCell>
        <mxCell id="2020" value="" style="rounded=0;whiteSpace=wrap;html=1;strokeColor=default;strokeWidth=1;fillColor=#F0F0F0;fontFamily=Verdana;fontSize=12;fontColor=#00BEF2" parent="1" vertex="1">
          <mxGeometry x="240" y="190" width="180" height="580" as="geometry" />
        </mxCell>
        <mxCell id="2021" value="" style="rounded=0;whiteSpace=wrap;html=1;strokeColor=default;strokeWidth=1;fillColor=#F0F0F0;fontFamily=Verdana;fontSize=12;fontColor=#00BEF2" parent="1" vertex="1">
          <mxGeometry x="440" y="190" width="180" height="580" as="geometry" />
        </mxCell>
        <mxCell id="2022" value="" style="rounded=0;whiteSpace=wrap;html=1;strokeColor=default;strokeWidth=1;fillColor=#F0F0F0;fontFamily=Verdana;fontSize=12;fontColor=#00BEF2" parent="1" vertex="1">
          <mxGeometry x="640" y="190" width="180" height="580" as="geometry" />
        </mxCell>
        <mxCell id="2023" value="" style="rounded=0;whiteSpace=wrap;html=1;strokeColor=default;strokeWidth=1;fillColor=#F0F0F0;fontFamily=Verdana;fontSize=12;fontColor=#00BEF2" parent="1" vertex="1">
          <mxGeometry x="840" y="190" width="180" height="580" as="geometry" />
        </mxCell>
        <mxCell id="2024" value="" style="rounded=0;whiteSpace=wrap;html=1;strokeColor=default;strokeWidth=1;fillColor=#F0F0F0;fontFamily=Verdana;fontSize=12;fontColor=#00BEF2" parent="1" vertex="1">
          <mxGeometry x="1043" y="190" width="180" height="580" as="geometry" />
        </mxCell>
        <mxCell id="2025" value="&lt;font style=&quot;&quot;&gt;&lt;span style=&quot;font-size: 14px;&quot;&gt;&lt;font color=&quot;#666666&quot;&gt;Last Week of Sprint&lt;/font&gt;&lt;br&gt;&lt;font color=&quot;#000000&quot;&gt;Sprint Planning&lt;/font&gt;&lt;font color=&quot;#666666&quot;&gt; (April )&lt;/font&gt;&lt;/span&gt;&lt;br&gt;&lt;span style=&quot;color: rgb(102, 102, 102); font-size: 12px;&quot;&gt;&lt;i style=&quot;&quot;&gt;03/27-03/31&lt;/i&gt;&lt;/span&gt;&lt;br&gt;&lt;/font&gt;" style="whiteSpace=wrap;html=1;strokeColor=default;strokeWidth=1;fillColor=#FF9933;fontFamily=Helvetica;fontSize=18;fontColor=#FFFFFF;fontStyle=1" parent="1" vertex="1">
          <mxGeometry x="34.38" y="190" width="180" height="80" as="geometry" />
        </mxCell>
        <mxCell id="2026" value="&lt;font style=&quot;&quot;&gt;&lt;font style=&quot;font-size: 14px;&quot;&gt;&lt;font color=&quot;#000000&quot;&gt;Start of Sprint&lt;/font&gt;&lt;font color=&quot;#666666&quot;&gt; (April)&lt;/font&gt;&lt;br&gt;&lt;/font&gt;&lt;i style=&quot;color: rgb(102, 102, 102); font-size: 12px; --tw-border-spacing-x: 0; --tw-border-spacing-y: 0; --tw-translate-x: 0; --tw-translate-y: 0; --tw-rotate: 0; --tw-skew-x: 0; --tw-skew-y: 0; --tw-scale-x: 1; --tw-scale-y: 1; --tw-pan-x: ; --tw-pan-y: ; --tw-pinch-zoom: ; --tw-scroll-snap-strictness: proximity; --tw-ordinal: ; --tw-slashed-zero: ; --tw-numeric-figure: ; --tw-numeric-spacing: ; --tw-numeric-fraction: ; --tw-ring-inset: ; --tw-ring-offset-width: 0px; --tw-ring-offset-color: #fff; --tw-ring-color: rgb(59 130 246 / 0.5); --tw-ring-offset-shadow: 0 0 #0000; --tw-ring-shadow: 0 0 #0000; --tw-shadow: 0 0 #0000; --tw-shadow-colored: 0 0 #0000; --tw-blur: ; --tw-brightness: ; --tw-contrast: ; --tw-grayscale: ; --tw-hue-rotate: ; --tw-invert: ; --tw-saturate: ; --tw-sepia: ; --tw-drop-shadow: ; --tw-backdrop-blur: ; --tw-backdrop-brightness: ; --tw-backdrop-contrast: ; --tw-backdrop-grayscale: ; --tw-backdrop-hue-rotate: ; --tw-backdrop-invert: ; --tw-backdrop-opacity: ; --tw-backdrop-saturate: ; --tw-backdrop-sepia: ; border-color: var(--border-color);&quot;&gt;04/03-04/07&lt;/i&gt;&lt;br&gt;&lt;/font&gt;" style="whiteSpace=wrap;html=1;strokeColor=default;strokeWidth=1;fillColor=#99CCFF;fontFamily=Helvetica;fontSize=18;fontColor=#FFFFFF;fontStyle=1" parent="1" vertex="1">
          <mxGeometry x="240" y="190" width="180" height="80" as="geometry" />
        </mxCell>
        <mxCell id="2027" value="&lt;font style=&quot;&quot;&gt;&lt;font style=&quot;color: rgb(102, 102, 102); font-size: 14px;&quot;&gt;2nd week of Sprint&lt;br&gt;&lt;/font&gt;&lt;font style=&quot;font-size: 14px;&quot;&gt;&lt;font color=&quot;#000000&quot;&gt;Mid-Sprint Review&lt;/font&gt;&lt;br&gt;&lt;/font&gt;&lt;i style=&quot;color: rgb(102, 102, 102); font-size: 12px; --tw-border-spacing-x: 0; --tw-border-spacing-y: 0; --tw-translate-x: 0; --tw-translate-y: 0; --tw-rotate: 0; --tw-skew-x: 0; --tw-skew-y: 0; --tw-scale-x: 1; --tw-scale-y: 1; --tw-pan-x: ; --tw-pan-y: ; --tw-pinch-zoom: ; --tw-scroll-snap-strictness: proximity; --tw-ordinal: ; --tw-slashed-zero: ; --tw-numeric-figure: ; --tw-numeric-spacing: ; --tw-numeric-fraction: ; --tw-ring-inset: ; --tw-ring-offset-width: 0px; --tw-ring-offset-color: #fff; --tw-ring-color: rgb(59 130 246 / 0.5); --tw-ring-offset-shadow: 0 0 #0000; --tw-ring-shadow: 0 0 #0000; --tw-shadow: 0 0 #0000; --tw-shadow-colored: 0 0 #0000; --tw-blur: ; --tw-brightness: ; --tw-contrast: ; --tw-grayscale: ; --tw-hue-rotate: ; --tw-invert: ; --tw-saturate: ; --tw-sepia: ; --tw-drop-shadow: ; --tw-backdrop-blur: ; --tw-backdrop-brightness: ; --tw-backdrop-contrast: ; --tw-backdrop-grayscale: ; --tw-backdrop-hue-rotate: ; --tw-backdrop-invert: ; --tw-backdrop-opacity: ; --tw-backdrop-saturate: ; --tw-backdrop-sepia: ; border-color: var(--border-color);&quot;&gt;04/10-04/14&lt;/i&gt;&lt;br&gt;&lt;/font&gt;" style="whiteSpace=wrap;html=1;strokeColor=default;strokeWidth=1;fillColor=#99CCFF;fontFamily=Helvetica;fontSize=18;fontColor=#FFFFFF;fontStyle=1" parent="1" vertex="1">
          <mxGeometry x="440" y="190" width="180" height="80" as="geometry" />
        </mxCell>
        <mxCell id="2028" value="&lt;font style=&quot;&quot;&gt;&lt;font color=&quot;#666666&quot;&gt;&lt;font style=&quot;font-size: 14px;&quot;&gt;3rd Week of Sprint&lt;br&gt;&lt;/font&gt;&lt;i style=&quot;font-size: 12px; --tw-border-spacing-x: 0; --tw-border-spacing-y: 0; --tw-translate-x: 0; --tw-translate-y: 0; --tw-rotate: 0; --tw-skew-x: 0; --tw-skew-y: 0; --tw-scale-x: 1; --tw-scale-y: 1; --tw-pan-x: ; --tw-pan-y: ; --tw-pinch-zoom: ; --tw-scroll-snap-strictness: proximity; --tw-ordinal: ; --tw-slashed-zero: ; --tw-numeric-figure: ; --tw-numeric-spacing: ; --tw-numeric-fraction: ; --tw-ring-inset: ; --tw-ring-offset-width: 0px; --tw-ring-offset-color: #fff; --tw-ring-color: rgb(59 130 246 / 0.5); --tw-ring-offset-shadow: 0 0 #0000; --tw-ring-shadow: 0 0 #0000; --tw-shadow: 0 0 #0000; --tw-shadow-colored: 0 0 #0000; --tw-blur: ; --tw-brightness: ; --tw-contrast: ; --tw-grayscale: ; --tw-hue-rotate: ; --tw-invert: ; --tw-saturate: ; --tw-sepia: ; --tw-drop-shadow: ; --tw-backdrop-blur: ; --tw-backdrop-brightness: ; --tw-backdrop-contrast: ; --tw-backdrop-grayscale: ; --tw-backdrop-hue-rotate: ; --tw-backdrop-invert: ; --tw-backdrop-opacity: ; --tw-backdrop-saturate: ; --tw-backdrop-sepia: ; border-color: var(--border-color);&quot;&gt;04/17-04/21&lt;/i&gt;&lt;/font&gt;&lt;br&gt;&lt;/font&gt;" style="whiteSpace=wrap;html=1;strokeColor=default;strokeWidth=1;fillColor=#99CCFF;fontFamily=Helvetica;fontSize=18;fontColor=#FFFFFF;fontStyle=1" parent="1" vertex="1">
          <mxGeometry x="640" y="190" width="180" height="80" as="geometry" />
        </mxCell>
        <mxCell id="2029" value="&lt;font style=&quot;font-size: 14px;&quot;&gt;&lt;font color=&quot;#666666&quot;&gt;Last Week of Sprint&lt;/font&gt;&lt;br&gt;&lt;font color=&quot;#000000&quot;&gt;Sprint Planning&lt;/font&gt;&lt;font color=&quot;#666666&quot;&gt; (May)&lt;br&gt;&lt;i style=&quot;--tw-border-spacing-x: 0; --tw-border-spacing-y: 0; --tw-translate-x: 0; --tw-translate-y: 0; --tw-rotate: 0; --tw-skew-x: 0; --tw-skew-y: 0; --tw-scale-x: 1; --tw-scale-y: 1; --tw-pan-x: ; --tw-pan-y: ; --tw-pinch-zoom: ; --tw-scroll-snap-strictness: proximity; --tw-ordinal: ; --tw-slashed-zero: ; --tw-numeric-figure: ; --tw-numeric-spacing: ; --tw-numeric-fraction: ; --tw-ring-inset: ; --tw-ring-offset-width: 0px; --tw-ring-offset-color: #fff; --tw-ring-color: rgb(59 130 246 / 0.5); --tw-ring-offset-shadow: 0 0 #0000; --tw-ring-shadow: 0 0 #0000; --tw-shadow: 0 0 #0000; --tw-shadow-colored: 0 0 #0000; --tw-blur: ; --tw-brightness: ; --tw-contrast: ; --tw-grayscale: ; --tw-hue-rotate: ; --tw-invert: ; --tw-saturate: ; --tw-sepia: ; --tw-drop-shadow: ; --tw-backdrop-blur: ; --tw-backdrop-brightness: ; --tw-backdrop-contrast: ; --tw-backdrop-grayscale: ; --tw-backdrop-hue-rotate: ; --tw-backdrop-invert: ; --tw-backdrop-opacity: ; --tw-backdrop-saturate: ; --tw-backdrop-sepia: ; border-color: var(--border-color); font-size: 12px;&quot;&gt;04/24-04/28&lt;/i&gt;&lt;/font&gt;&lt;br&gt;&lt;/font&gt;" style="whiteSpace=wrap;html=1;strokeColor=default;strokeWidth=1;fillColor=#99CCFF;fontFamily=Helvetica;fontSize=18;fontColor=#FFFFFF;fontStyle=1" parent="1" vertex="1">
          <mxGeometry x="840" y="190" width="180" height="80" as="geometry" />
        </mxCell>
        <mxCell id="2030" value="&lt;font color=&quot;#000000&quot; style=&quot;--tw-border-spacing-x: 0; --tw-border-spacing-y: 0; --tw-translate-x: 0; --tw-translate-y: 0; --tw-rotate: 0; --tw-skew-x: 0; --tw-skew-y: 0; --tw-scale-x: 1; --tw-scale-y: 1; --tw-pan-x: ; --tw-pan-y: ; --tw-pinch-zoom: ; --tw-scroll-snap-strictness: proximity; --tw-ordinal: ; --tw-slashed-zero: ; --tw-numeric-figure: ; --tw-numeric-spacing: ; --tw-numeric-fraction: ; --tw-ring-inset: ; --tw-ring-offset-width: 0px; --tw-ring-offset-color: #fff; --tw-ring-color: rgb(59 130 246 / 0.5); --tw-ring-offset-shadow: 0 0 #0000; --tw-ring-shadow: 0 0 #0000; --tw-shadow: 0 0 #0000; --tw-shadow-colored: 0 0 #0000; --tw-blur: ; --tw-brightness: ; --tw-contrast: ; --tw-grayscale: ; --tw-hue-rotate: ; --tw-invert: ; --tw-saturate: ; --tw-sepia: ; --tw-drop-shadow: ; --tw-backdrop-blur: ; --tw-backdrop-brightness: ; --tw-backdrop-contrast: ; --tw-backdrop-grayscale: ; --tw-backdrop-hue-rotate: ; --tw-backdrop-invert: ; --tw-backdrop-opacity: ; --tw-backdrop-saturate: ; --tw-backdrop-sepia: ; border-color: var(--border-color); font-size: 14px;&quot;&gt;Start of Sprint &lt;/font&gt;&lt;font color=&quot;#666666&quot;&gt;&lt;font style=&quot;--tw-border-spacing-x: 0; --tw-border-spacing-y: 0; --tw-translate-x: 0; --tw-translate-y: 0; --tw-rotate: 0; --tw-skew-x: 0; --tw-skew-y: 0; --tw-scale-x: 1; --tw-scale-y: 1; --tw-pan-x: ; --tw-pan-y: ; --tw-pinch-zoom: ; --tw-scroll-snap-strictness: proximity; --tw-ordinal: ; --tw-slashed-zero: ; --tw-numeric-figure: ; --tw-numeric-spacing: ; --tw-numeric-fraction: ; --tw-ring-inset: ; --tw-ring-offset-width: 0px; --tw-ring-offset-color: #fff; --tw-ring-color: rgb(59 130 246 / 0.5); --tw-ring-offset-shadow: 0 0 #0000; --tw-ring-shadow: 0 0 #0000; --tw-shadow: 0 0 #0000; --tw-shadow-colored: 0 0 #0000; --tw-blur: ; --tw-brightness: ; --tw-contrast: ; --tw-grayscale: ; --tw-hue-rotate: ; --tw-invert: ; --tw-saturate: ; --tw-sepia: ; --tw-drop-shadow: ; --tw-backdrop-blur: ; --tw-backdrop-brightness: ; --tw-backdrop-contrast: ; --tw-backdrop-grayscale: ; --tw-backdrop-hue-rotate: ; --tw-backdrop-invert: ; --tw-backdrop-opacity: ; --tw-backdrop-saturate: ; --tw-backdrop-sepia: ; border-color: var(--border-color); font-size: 14px;&quot;&gt;(May)&lt;br style=&quot;--tw-border-spacing-x: 0; --tw-border-spacing-y: 0; --tw-translate-x: 0; --tw-translate-y: 0; --tw-rotate: 0; --tw-skew-x: 0; --tw-skew-y: 0; --tw-scale-x: 1; --tw-scale-y: 1; --tw-pan-x: ; --tw-pan-y: ; --tw-pinch-zoom: ; --tw-scroll-snap-strictness: proximity; --tw-ordinal: ; --tw-slashed-zero: ; --tw-numeric-figure: ; --tw-numeric-spacing: ; --tw-numeric-fraction: ; --tw-ring-inset: ; --tw-ring-offset-width: 0px; --tw-ring-offset-color: #fff; --tw-ring-color: rgb(59 130 246 / 0.5); --tw-ring-offset-shadow: 0 0 #0000; --tw-ring-shadow: 0 0 #0000; --tw-shadow: 0 0 #0000; --tw-shadow-colored: 0 0 #0000; --tw-blur: ; --tw-brightness: ; --tw-contrast: ; --tw-grayscale: ; --tw-hue-rotate: ; --tw-invert: ; --tw-saturate: ; --tw-sepia: ; --tw-drop-shadow: ; --tw-backdrop-blur: ; --tw-backdrop-brightness: ; --tw-backdrop-contrast: ; --tw-backdrop-grayscale: ; --tw-backdrop-hue-rotate: ; --tw-backdrop-invert: ; --tw-backdrop-opacity: ; --tw-backdrop-saturate: ; --tw-backdrop-sepia: ; border-color: var(--border-color);&quot;&gt;&lt;/font&gt;&lt;i style=&quot;--tw-border-spacing-x: 0; --tw-border-spacing-y: 0; --tw-translate-x: 0; --tw-translate-y: 0; --tw-rotate: 0; --tw-skew-x: 0; --tw-skew-y: 0; --tw-scale-x: 1; --tw-scale-y: 1; --tw-pan-x: ; --tw-pan-y: ; --tw-pinch-zoom: ; --tw-scroll-snap-strictness: proximity; --tw-ordinal: ; --tw-slashed-zero: ; --tw-numeric-figure: ; --tw-numeric-spacing: ; --tw-numeric-fraction: ; --tw-ring-inset: ; --tw-ring-offset-width: 0px; --tw-ring-offset-color: #fff; --tw-ring-color: rgb(59 130 246 / 0.5); --tw-ring-offset-shadow: 0 0 #0000; --tw-ring-shadow: 0 0 #0000; --tw-shadow: 0 0 #0000; --tw-shadow-colored: 0 0 #0000; --tw-blur: ; --tw-brightness: ; --tw-contrast: ; --tw-grayscale: ; --tw-hue-rotate: ; --tw-invert: ; --tw-saturate: ; --tw-sepia: ; --tw-drop-shadow: ; --tw-backdrop-blur: ; --tw-backdrop-brightness: ; --tw-backdrop-contrast: ; --tw-backdrop-grayscale: ; --tw-backdrop-hue-rotate: ; --tw-backdrop-invert: ; --tw-backdrop-opacity: ; --tw-backdrop-saturate: ; --tw-backdrop-sepia: ; border-color: var(--border-color); font-size: 12px;&quot;&gt;04/03-04/07&lt;/i&gt;&lt;/font&gt;" style="whiteSpace=wrap;html=1;strokeColor=default;strokeWidth=1;fillColor=#99FF99;fontFamily=Helvetica;fontSize=18;fontColor=#FFFFFF;fontStyle=1" parent="1" vertex="1">
          <mxGeometry x="1043" y="190" width="180" height="80" as="geometry" />
        </mxCell>
        <mxCell id="2047" value="Sprint Framework - Example (April 2023)" style="text;html=1;strokeColor=none;fillColor=none;align=center;verticalAlign=middle;whiteSpace=wrap;overflow=hidden;dashed=1;fontSize=36;fontColor=#000000;fontFamily=Helvetica;fontStyle=1" parent="1" vertex="1">
          <mxGeometry x="109" y="90" width="1060" height="50" as="geometry" />
        </mxCell>
        <mxCell id="KgjY-8UCAt4k31KfbtkC-2089" value="&lt;font style=&quot;font-size: 17px;&quot;&gt;SIM Cut-off Day&lt;br&gt;&lt;font color=&quot;#ff0000&quot;&gt;&lt;i&gt;EOD Friday&lt;/i&gt;&lt;/font&gt;&lt;br&gt;&lt;/font&gt;" style="text;html=1;align=center;verticalAlign=middle;whiteSpace=wrap;rounded=0;strokeColor=#007FFF;strokeWidth=2;fillColor=#99CCFF;" parent="1" vertex="1">
          <mxGeometry x="-150" y="675" width="150" height="70" as="geometry" />
        </mxCell>
        <mxCell id="KgjY-8UCAt4k31KfbtkC-2090" value="&lt;font style=&quot;font-size: 17px;&quot;&gt;Sprint Pre-planning&lt;br&gt;&lt;i style=&quot;--tw-border-spacing-x: 0; --tw-border-spacing-y: 0; --tw-translate-x: 0; --tw-translate-y: 0; --tw-rotate: 0; --tw-skew-x: 0; --tw-skew-y: 0; --tw-scale-x: 1; --tw-scale-y: 1; --tw-pan-x: ; --tw-pan-y: ; --tw-pinch-zoom: ; --tw-scroll-snap-strictness: proximity; --tw-ordinal: ; --tw-slashed-zero: ; --tw-numeric-figure: ; --tw-numeric-spacing: ; --tw-numeric-fraction: ; --tw-ring-inset: ; --tw-ring-offset-width: 0px; --tw-ring-offset-color: #fff; --tw-ring-color: rgb(59 130 246 / 0.5); --tw-ring-offset-shadow: 0 0 #0000; --tw-ring-shadow: 0 0 #0000; --tw-shadow: 0 0 #0000; --tw-shadow-colored: 0 0 #0000; --tw-blur: ; --tw-brightness: ; --tw-contrast: ; --tw-grayscale: ; --tw-hue-rotate: ; --tw-invert: ; --tw-saturate: ; --tw-sepia: ; --tw-drop-shadow: ; --tw-backdrop-blur: ; --tw-backdrop-brightness: ; --tw-backdrop-contrast: ; --tw-backdrop-grayscale: ; --tw-backdrop-hue-rotate: ; --tw-backdrop-invert: ; --tw-backdrop-opacity: ; --tw-backdrop-saturate: ; --tw-backdrop-sepia: ; border-color: var(--border-color); color: rgb(255, 0, 0);&quot;&gt;From Monday to Wednesday&amp;nbsp;&lt;/i&gt;&lt;br&gt;&lt;/font&gt;" style="text;html=1;align=center;verticalAlign=middle;whiteSpace=wrap;rounded=0;strokeColor=#007FFF;strokeWidth=2;fillColor=#99CCFF;" parent="1" vertex="1">
          <mxGeometry x="50" y="290" width="150" height="70" as="geometry" />
        </mxCell>
        <mxCell id="KgjY-8UCAt4k31KfbtkC-2091" value="&lt;font style=&quot;font-size: 17px;&quot;&gt;BI Internal Sprint Planning Meeting&lt;br&gt;&lt;i style=&quot;--tw-border-spacing-x: 0; --tw-border-spacing-y: 0; --tw-translate-x: 0; --tw-translate-y: 0; --tw-rotate: 0; --tw-skew-x: 0; --tw-skew-y: 0; --tw-scale-x: 1; --tw-scale-y: 1; --tw-pan-x: ; --tw-pan-y: ; --tw-pinch-zoom: ; --tw-scroll-snap-strictness: proximity; --tw-ordinal: ; --tw-slashed-zero: ; --tw-numeric-figure: ; --tw-numeric-spacing: ; --tw-numeric-fraction: ; --tw-ring-inset: ; --tw-ring-offset-width: 0px; --tw-ring-offset-color: #fff; --tw-ring-color: rgb(59 130 246 / 0.5); --tw-ring-offset-shadow: 0 0 #0000; --tw-ring-shadow: 0 0 #0000; --tw-shadow: 0 0 #0000; --tw-shadow-colored: 0 0 #0000; --tw-blur: ; --tw-brightness: ; --tw-contrast: ; --tw-grayscale: ; --tw-hue-rotate: ; --tw-invert: ; --tw-saturate: ; --tw-sepia: ; --tw-drop-shadow: ; --tw-backdrop-blur: ; --tw-backdrop-brightness: ; --tw-backdrop-contrast: ; --tw-backdrop-grayscale: ; --tw-backdrop-hue-rotate: ; --tw-backdrop-invert: ; --tw-backdrop-opacity: ; --tw-backdrop-saturate: ; --tw-backdrop-sepia: ; border-color: var(--border-color); color: rgb(255, 0, 0);&quot;&gt;&amp;nbsp;Wednesday&amp;nbsp;&lt;/i&gt;&lt;br&gt;&lt;/font&gt;" style="text;html=1;align=center;verticalAlign=middle;whiteSpace=wrap;rounded=0;strokeColor=#007FFF;strokeWidth=2;fillColor=#99CCFF;" parent="1" vertex="1">
          <mxGeometry x="50" y="400" width="150" height="70" as="geometry" />
        </mxCell>
        <mxCell id="KgjY-8UCAt4k31KfbtkC-2092" value="&lt;font style=&quot;font-size: 17px;&quot;&gt;&lt;span style=&quot;--tw-border-spacing-x: 0; --tw-border-spacing-y: 0; --tw-translate-x: 0; --tw-translate-y: 0; --tw-rotate: 0; --tw-skew-x: 0; --tw-skew-y: 0; --tw-scale-x: 1; --tw-scale-y: 1; --tw-pan-x: ; --tw-pan-y: ; --tw-pinch-zoom: ; --tw-scroll-snap-strictness: proximity; --tw-ordinal: ; --tw-slashed-zero: ; --tw-numeric-figure: ; --tw-numeric-spacing: ; --tw-numeric-fraction: ; --tw-ring-inset: ; --tw-ring-offset-width: 0px; --tw-ring-offset-color: #fff; --tw-ring-color: rgb(59 130 246 / 0.5); --tw-ring-offset-shadow: 0 0 #0000; --tw-ring-shadow: 0 0 #0000; --tw-shadow: 0 0 #0000; --tw-shadow-colored: 0 0 #0000; --tw-blur: ; --tw-brightness: ; --tw-contrast: ; --tw-grayscale: ; --tw-hue-rotate: ; --tw-invert: ; --tw-saturate: ; --tw-sepia: ; --tw-drop-shadow: ; --tw-backdrop-blur: ; --tw-backdrop-brightness: ; --tw-backdrop-contrast: ; --tw-backdrop-grayscale: ; --tw-backdrop-hue-rotate: ; --tw-backdrop-invert: ; --tw-backdrop-opacity: ; --tw-backdrop-saturate: ; --tw-backdrop-sepia: ; border-color: var(--border-color);&quot;&gt;Sprint Planning Review Meeting with Stakeholders&lt;br&gt;&lt;/span&gt;&lt;i style=&quot;--tw-border-spacing-x: 0; --tw-border-spacing-y: 0; --tw-translate-x: 0; --tw-translate-y: 0; --tw-rotate: 0; --tw-skew-x: 0; --tw-skew-y: 0; --tw-scale-x: 1; --tw-scale-y: 1; --tw-pan-x: ; --tw-pan-y: ; --tw-pinch-zoom: ; --tw-scroll-snap-strictness: proximity; --tw-ordinal: ; --tw-slashed-zero: ; --tw-numeric-figure: ; --tw-numeric-spacing: ; --tw-numeric-fraction: ; --tw-ring-inset: ; --tw-ring-offset-width: 0px; --tw-ring-offset-color: #fff; --tw-ring-color: rgb(59 130 246 / 0.5); --tw-ring-offset-shadow: 0 0 #0000; --tw-ring-shadow: 0 0 #0000; --tw-shadow: 0 0 #0000; --tw-shadow-colored: 0 0 #0000; --tw-blur: ; --tw-brightness: ; --tw-contrast: ; --tw-grayscale: ; --tw-hue-rotate: ; --tw-invert: ; --tw-saturate: ; --tw-sepia: ; --tw-drop-shadow: ; --tw-backdrop-blur: ; --tw-backdrop-brightness: ; --tw-backdrop-contrast: ; --tw-backdrop-grayscale: ; --tw-backdrop-hue-rotate: ; --tw-backdrop-invert: ; --tw-backdrop-opacity: ; --tw-backdrop-saturate: ; --tw-backdrop-sepia: ; border-color: var(--border-color); color: rgb(255, 0, 0);&quot;&gt;&amp;nbsp;Thursday&amp;nbsp;&lt;/i&gt;&lt;br&gt;&lt;/font&gt;" style="text;html=1;align=center;verticalAlign=middle;whiteSpace=wrap;rounded=0;strokeColor=#007FFF;strokeWidth=2;fillColor=#99CCFF;" parent="1" vertex="1">
          <mxGeometry x="50" y="510.5" width="150" height="92" as="geometry" />
        </mxCell>
        <mxCell id="KgjY-8UCAt4k31KfbtkC-2093" value="&lt;font style=&quot;font-size: 17px;&quot;&gt;Sprint Starts&amp;nbsp;&lt;br&gt;&lt;i style=&quot;color: rgb(255, 0, 0);&quot;&gt;Monday&lt;/i&gt;&lt;br&gt;&lt;/font&gt;" style="text;html=1;align=center;verticalAlign=middle;whiteSpace=wrap;rounded=0;strokeColor=#007FFF;strokeWidth=2;fillColor=#99CCFF;" parent="1" vertex="1">
          <mxGeometry x="255" y="310" width="150" height="70" as="geometry" />
        </mxCell>
        <mxCell id="KgjY-8UCAt4k31KfbtkC-2095" value="&lt;font style=&quot;font-size: 17px;&quot;&gt;BI Internal Mid-Sprint Review Meeting &lt;b&gt;(Ad-hoc only)&lt;/b&gt;&amp;nbsp;&lt;br&gt;&lt;i style=&quot;color: rgb(255, 0, 0);&quot;&gt;Wednesday&lt;/i&gt;&lt;br&gt;&lt;/font&gt;" style="text;html=1;align=center;verticalAlign=middle;whiteSpace=wrap;rounded=0;strokeColor=#007FFF;strokeWidth=2;fillColor=#99CCFF;" parent="1" vertex="1">
          <mxGeometry x="455" y="290" width="150" height="110" as="geometry" />
        </mxCell>
        <mxCell id="KgjY-8UCAt4k31KfbtkC-2097" value="&lt;b&gt;&lt;font style=&quot;font-size: 15px;&quot;&gt;LAST WEEK OF MARCH&lt;/font&gt;&lt;/b&gt;" style="text;html=1;strokeColor=none;fillColor=none;align=center;verticalAlign=middle;whiteSpace=wrap;rounded=0;" parent="1" vertex="1">
          <mxGeometry x="31.879999999999995" y="160" width="183.75" height="10" as="geometry" />
        </mxCell>
        <mxCell id="KgjY-8UCAt4k31KfbtkC-2099" value="&lt;b&gt;&lt;font style=&quot;font-size: 15px;&quot;&gt;1st WEEK OF APRIL&lt;/font&gt;&lt;/b&gt;" style="text;html=1;strokeColor=none;fillColor=none;align=center;verticalAlign=middle;whiteSpace=wrap;rounded=0;" parent="1" vertex="1">
          <mxGeometry x="231.25" y="160" width="183.75" height="10" as="geometry" />
        </mxCell>
        <mxCell id="KgjY-8UCAt4k31KfbtkC-2100" value="&lt;b&gt;&lt;font style=&quot;font-size: 15px;&quot;&gt;2nd WEEK OF APRIL&lt;/font&gt;&lt;/b&gt;" style="text;html=1;strokeColor=none;fillColor=none;align=center;verticalAlign=middle;whiteSpace=wrap;rounded=0;" parent="1" vertex="1">
          <mxGeometry x="435.63" y="160" width="183.75" height="10" as="geometry" />
        </mxCell>
        <mxCell id="KgjY-8UCAt4k31KfbtkC-2101" value="&lt;b&gt;&lt;font style=&quot;font-size: 15px;&quot;&gt;3rd WEEK OF APRIL&lt;/font&gt;&lt;/b&gt;" style="text;html=1;strokeColor=none;fillColor=none;align=center;verticalAlign=middle;whiteSpace=wrap;rounded=0;" parent="1" vertex="1">
          <mxGeometry x="635.63" y="160" width="183.75" height="10" as="geometry" />
        </mxCell>
        <mxCell id="KgjY-8UCAt4k31KfbtkC-2102" value="&lt;b&gt;&lt;font style=&quot;font-size: 15px;&quot;&gt;LAST WEEK OF APRIL&lt;/font&gt;&lt;/b&gt;" style="text;html=1;strokeColor=none;fillColor=none;align=center;verticalAlign=middle;whiteSpace=wrap;rounded=0;" parent="1" vertex="1">
          <mxGeometry x="847.19" y="160" width="183.75" height="10" as="geometry" />
        </mxCell>
        <mxCell id="KgjY-8UCAt4k31KfbtkC-2103" value="&lt;b&gt;&lt;font style=&quot;font-size: 15px;&quot;&gt;1st WEEK OF MAY&lt;/font&gt;&lt;/b&gt;" style="text;html=1;strokeColor=none;fillColor=none;align=center;verticalAlign=middle;whiteSpace=wrap;rounded=0;" parent="1" vertex="1">
          <mxGeometry x="1030.9399999999998" y="160" width="183.75" height="10" as="geometry" />
        </mxCell>
        <mxCell id="KgjY-8UCAt4k31KfbtkC-2105" value="&lt;font style=&quot;font-size: 17px;&quot;&gt;Sprint Pre-planning&lt;br&gt;&lt;i style=&quot;--tw-border-spacing-x: 0; --tw-border-spacing-y: 0; --tw-translate-x: 0; --tw-translate-y: 0; --tw-rotate: 0; --tw-skew-x: 0; --tw-skew-y: 0; --tw-scale-x: 1; --tw-scale-y: 1; --tw-pan-x: ; --tw-pan-y: ; --tw-pinch-zoom: ; --tw-scroll-snap-strictness: proximity; --tw-ordinal: ; --tw-slashed-zero: ; --tw-numeric-figure: ; --tw-numeric-spacing: ; --tw-numeric-fraction: ; --tw-ring-inset: ; --tw-ring-offset-width: 0px; --tw-ring-offset-color: #fff; --tw-ring-color: rgb(59 130 246 / 0.5); --tw-ring-offset-shadow: 0 0 #0000; --tw-ring-shadow: 0 0 #0000; --tw-shadow: 0 0 #0000; --tw-shadow-colored: 0 0 #0000; --tw-blur: ; --tw-brightness: ; --tw-contrast: ; --tw-grayscale: ; --tw-hue-rotate: ; --tw-invert: ; --tw-saturate: ; --tw-sepia: ; --tw-drop-shadow: ; --tw-backdrop-blur: ; --tw-backdrop-brightness: ; --tw-backdrop-contrast: ; --tw-backdrop-grayscale: ; --tw-backdrop-hue-rotate: ; --tw-backdrop-invert: ; --tw-backdrop-opacity: ; --tw-backdrop-saturate: ; --tw-backdrop-sepia: ; border-color: var(--border-color); color: rgb(255, 0, 0);&quot;&gt;From Monday to Wednesday&amp;nbsp;&lt;/i&gt;&lt;br&gt;&lt;/font&gt;" style="text;html=1;align=center;verticalAlign=middle;whiteSpace=wrap;rounded=0;strokeColor=#00CC00;strokeWidth=2;fillColor=#99FF99;" parent="1" vertex="1">
          <mxGeometry x="854.9999999999999" y="300" width="150" height="70" as="geometry" />
        </mxCell>
        <mxCell id="KgjY-8UCAt4k31KfbtkC-2106" value="&lt;font style=&quot;font-size: 17px;&quot;&gt;BI Internal Sprint Planning Meeting&lt;br&gt;&lt;i style=&quot;--tw-border-spacing-x: 0; --tw-border-spacing-y: 0; --tw-translate-x: 0; --tw-translate-y: 0; --tw-rotate: 0; --tw-skew-x: 0; --tw-skew-y: 0; --tw-scale-x: 1; --tw-scale-y: 1; --tw-pan-x: ; --tw-pan-y: ; --tw-pinch-zoom: ; --tw-scroll-snap-strictness: proximity; --tw-ordinal: ; --tw-slashed-zero: ; --tw-numeric-figure: ; --tw-numeric-spacing: ; --tw-numeric-fraction: ; --tw-ring-inset: ; --tw-ring-offset-width: 0px; --tw-ring-offset-color: #fff; --tw-ring-color: rgb(59 130 246 / 0.5); --tw-ring-offset-shadow: 0 0 #0000; --tw-ring-shadow: 0 0 #0000; --tw-shadow: 0 0 #0000; --tw-shadow-colored: 0 0 #0000; --tw-blur: ; --tw-brightness: ; --tw-contrast: ; --tw-grayscale: ; --tw-hue-rotate: ; --tw-invert: ; --tw-saturate: ; --tw-sepia: ; --tw-drop-shadow: ; --tw-backdrop-blur: ; --tw-backdrop-brightness: ; --tw-backdrop-contrast: ; --tw-backdrop-grayscale: ; --tw-backdrop-hue-rotate: ; --tw-backdrop-invert: ; --tw-backdrop-opacity: ; --tw-backdrop-saturate: ; --tw-backdrop-sepia: ; border-color: var(--border-color); color: rgb(255, 0, 0);&quot;&gt;&amp;nbsp;Wednesday&amp;nbsp;&lt;/i&gt;&lt;br&gt;&lt;/font&gt;" style="text;html=1;align=center;verticalAlign=middle;whiteSpace=wrap;rounded=0;strokeColor=#00CC00;strokeWidth=2;fillColor=#99FF99;" parent="1" vertex="1">
          <mxGeometry x="854.9999999999999" y="400" width="150" height="70" as="geometry" />
        </mxCell>
        <mxCell id="KgjY-8UCAt4k31KfbtkC-2108" value="&lt;font style=&quot;font-size: 17px;&quot;&gt;Sprint Starts&amp;nbsp;&lt;br&gt;&lt;i style=&quot;color: rgb(255, 0, 0);&quot;&gt;Monday&lt;/i&gt;&lt;br&gt;&lt;/font&gt;" style="text;html=1;align=center;verticalAlign=middle;whiteSpace=wrap;rounded=0;strokeColor=#00CC00;strokeWidth=2;fillColor=#99FF99;" parent="1" vertex="1">
          <mxGeometry x="1058" y="287.5" width="150" height="70" as="geometry" />
        </mxCell>
        <mxCell id="KgjY-8UCAt4k31KfbtkC-2109" value="" style="endArrow=classic;html=1;rounded=0;exitX=0.5;exitY=0;exitDx=0;exitDy=0;entryX=0;entryY=0.5;entryDx=0;entryDy=0;" parent="1" source="KgjY-8UCAt4k31KfbtkC-2089" target="KgjY-8UCAt4k31KfbtkC-2090" edge="1">
          <mxGeometry width="50" height="50" relative="1" as="geometry">
            <mxPoint x="126.87" y="395" as="sourcePoint" />
            <mxPoint x="176.87" y="345" as="targetPoint" />
            <Array as="points">
              <mxPoint x="-75" y="325" />
            </Array>
          </mxGeometry>
        </mxCell>
        <mxCell id="KgjY-8UCAt4k31KfbtkC-2110" value="" style="endArrow=classic;html=1;rounded=0;entryX=0.5;entryY=0;entryDx=0;entryDy=0;" parent="1" source="KgjY-8UCAt4k31KfbtkC-2090" target="KgjY-8UCAt4k31KfbtkC-2091" edge="1">
          <mxGeometry width="50" height="50" relative="1" as="geometry">
            <mxPoint x="124.5" y="483" as="sourcePoint" />
            <mxPoint x="124.5" y="535" as="targetPoint" />
          </mxGeometry>
        </mxCell>
        <mxCell id="KgjY-8UCAt4k31KfbtkC-2111" value="" style="endArrow=classic;html=1;rounded=0;exitX=0.5;exitY=1;exitDx=0;exitDy=0;entryX=0.5;entryY=0;entryDx=0;entryDy=0;" parent="1" source="KgjY-8UCAt4k31KfbtkC-2091" target="KgjY-8UCAt4k31KfbtkC-2092" edge="1">
          <mxGeometry width="50" height="50" relative="1" as="geometry">
            <mxPoint x="126.37" y="625" as="sourcePoint" />
            <mxPoint x="126.87" y="655" as="targetPoint" />
          </mxGeometry>
        </mxCell>
        <mxCell id="KgjY-8UCAt4k31KfbtkC-2112" value="" style="endArrow=classic;html=1;rounded=0;exitX=1.027;exitY=0.489;exitDx=0;exitDy=0;entryX=0;entryY=0.5;entryDx=0;entryDy=0;exitPerimeter=0;" parent="1" source="gve1T0dqvaqDpXsNanch-2047" target="KgjY-8UCAt4k31KfbtkC-2093" edge="1">
          <mxGeometry width="50" height="50" relative="1" as="geometry">
            <mxPoint x="190" y="764" as="sourcePoint" />
            <mxPoint x="252.5" y="336.5" as="targetPoint" />
            <Array as="points">
              <mxPoint x="230" y="677" />
              <mxPoint x="230" y="345" />
            </Array>
          </mxGeometry>
        </mxCell>
        <mxCell id="KgjY-8UCAt4k31KfbtkC-2113" value="" style="endArrow=classic;html=1;rounded=0;exitX=1;exitY=0.5;exitDx=0;exitDy=0;entryX=0;entryY=0.5;entryDx=0;entryDy=0;" parent="1" source="KgjY-8UCAt4k31KfbtkC-2093" target="KgjY-8UCAt4k31KfbtkC-2095" edge="1">
          <mxGeometry width="50" height="50" relative="1" as="geometry">
            <mxPoint x="332" y="398" as="sourcePoint" />
            <mxPoint x="455" y="325" as="targetPoint" />
          </mxGeometry>
        </mxCell>
        <mxCell id="KgjY-8UCAt4k31KfbtkC-2115" value="" style="endArrow=classic;html=1;rounded=0;exitX=0.5;exitY=1;exitDx=0;exitDy=0;entryX=0.488;entryY=0.014;entryDx=0;entryDy=0;entryPerimeter=0;" parent="1" source="KgjY-8UCAt4k31KfbtkC-2095" target="gve1T0dqvaqDpXsNanch-2050" edge="1">
          <mxGeometry width="50" height="50" relative="1" as="geometry">
            <mxPoint x="529.5" y="615" as="sourcePoint" />
            <mxPoint x="528" y="480" as="targetPoint" />
          </mxGeometry>
        </mxCell>
        <mxCell id="KgjY-8UCAt4k31KfbtkC-2116" value="" style="endArrow=classic;html=1;rounded=0;entryX=0;entryY=0.5;entryDx=0;entryDy=0;exitX=0.988;exitY=0.442;exitDx=0;exitDy=0;exitPerimeter=0;" parent="1" source="gve1T0dqvaqDpXsNanch-2050" target="KgjY-8UCAt4k31KfbtkC-2105" edge="1">
          <mxGeometry width="50" height="50" relative="1" as="geometry">
            <mxPoint x="605" y="528.25" as="sourcePoint" />
            <mxPoint x="655" y="695" as="targetPoint" />
            <Array as="points">
              <mxPoint x="630" y="478" />
              <mxPoint x="630" y="335" />
            </Array>
          </mxGeometry>
        </mxCell>
        <mxCell id="KgjY-8UCAt4k31KfbtkC-2118" value="" style="endArrow=classic;html=1;rounded=0;exitX=0.5;exitY=1;exitDx=0;exitDy=0;" parent="1" source="KgjY-8UCAt4k31KfbtkC-2105" edge="1" target="KgjY-8UCAt4k31KfbtkC-2106">
          <mxGeometry width="50" height="50" relative="1" as="geometry">
            <mxPoint x="928.87" y="491.5" as="sourcePoint" />
            <mxPoint x="929.93" y="531.5" as="targetPoint" />
          </mxGeometry>
        </mxCell>
        <mxCell id="KgjY-8UCAt4k31KfbtkC-2119" value="" style="endArrow=classic;html=1;rounded=0;exitX=0.5;exitY=1;exitDx=0;exitDy=0;entryX=0.52;entryY=0;entryDx=0;entryDy=0;entryPerimeter=0;" parent="1" source="gve1T0dqvaqDpXsNanch-2054" edge="1" target="gve1T0dqvaqDpXsNanch-2053">
          <mxGeometry width="50" height="50" relative="1" as="geometry">
            <mxPoint x="928.87" y="611.5" as="sourcePoint" />
            <mxPoint x="928.93" y="651.5" as="targetPoint" />
          </mxGeometry>
        </mxCell>
        <mxCell id="KgjY-8UCAt4k31KfbtkC-2120" value="" style="endArrow=classic;html=1;rounded=0;exitX=0.988;exitY=0.547;exitDx=0;exitDy=0;entryX=0;entryY=0.5;entryDx=0;entryDy=0;exitPerimeter=0;" parent="1" source="gve1T0dqvaqDpXsNanch-2053" target="KgjY-8UCAt4k31KfbtkC-2108" edge="1">
          <mxGeometry width="50" height="50" relative="1" as="geometry">
            <mxPoint x="1005" y="696.5" as="sourcePoint" />
            <mxPoint x="1091.88" y="333" as="targetPoint" />
            <Array as="points">
              <mxPoint x="1030" y="679" />
              <mxPoint x="1030" y="323" />
            </Array>
          </mxGeometry>
        </mxCell>
        <mxCell id="gve1T0dqvaqDpXsNanch-2047" value="" style="html=1;verticalLabelPosition=bottom;align=center;labelBackgroundColor=#ffffff;verticalAlign=top;strokeWidth=2;strokeColor=#0080F0;shadow=0;dashed=0;shape=mxgraph.ios7.icons.mail;" vertex="1" parent="1">
          <mxGeometry x="99.38" y="660" width="51.24" height="34.75" as="geometry" />
        </mxCell>
        <mxCell id="gve1T0dqvaqDpXsNanch-2048" value="" style="endArrow=classic;html=1;rounded=0;exitX=0.5;exitY=1;exitDx=0;exitDy=0;entryX=0.485;entryY=-0.029;entryDx=0;entryDy=0;entryPerimeter=0;" edge="1" parent="1" source="KgjY-8UCAt4k31KfbtkC-2092" target="gve1T0dqvaqDpXsNanch-2047">
          <mxGeometry width="50" height="50" relative="1" as="geometry">
            <mxPoint x="123.26" y="609.5" as="sourcePoint" />
            <mxPoint x="123.26" y="650.5" as="targetPoint" />
          </mxGeometry>
        </mxCell>
        <mxCell id="gve1T0dqvaqDpXsNanch-2049" value="&lt;span style=&quot;color: rgb(0, 0, 0); font-family: Helvetica; font-size: 17px; font-style: normal; font-variant-ligatures: normal; font-variant-caps: normal; font-weight: 400; letter-spacing: normal; orphans: 2; text-indent: 0px; text-transform: none; widows: 2; word-spacing: 0px; -webkit-text-stroke-width: 0px; text-decoration-thickness: initial; text-decoration-style: initial; text-decoration-color: initial; float: none; display: inline !important;&quot;&gt;Sprint &lt;br&gt;Summary Email&lt;/span&gt;" style="text;whiteSpace=wrap;html=1;align=center;" vertex="1" parent="1">
          <mxGeometry x="60" y="694.75" width="130" height="40" as="geometry" />
        </mxCell>
        <mxCell id="gve1T0dqvaqDpXsNanch-2050" value="" style="html=1;verticalLabelPosition=bottom;align=center;labelBackgroundColor=#ffffff;verticalAlign=top;strokeWidth=2;strokeColor=#0080F0;shadow=0;dashed=0;shape=mxgraph.ios7.icons.mail;" vertex="1" parent="1">
          <mxGeometry x="504.38" y="462.63" width="51.24" height="34.75" as="geometry" />
        </mxCell>
        <mxCell id="gve1T0dqvaqDpXsNanch-2051" value="&lt;span style=&quot;color: rgb(0, 0, 0); font-family: Helvetica; font-size: 17px; font-style: normal; font-variant-ligatures: normal; font-variant-caps: normal; font-weight: 400; letter-spacing: normal; orphans: 2; text-indent: 0px; text-transform: none; widows: 2; word-spacing: 0px; -webkit-text-stroke-width: 0px; text-decoration-thickness: initial; text-decoration-style: initial; text-decoration-color: initial; float: none; display: inline !important;&quot;&gt;Sprint &lt;br&gt;Review Email&lt;/span&gt;" style="text;whiteSpace=wrap;html=1;align=center;" vertex="1" parent="1">
          <mxGeometry x="472.51" y="497.38" width="110" height="50" as="geometry" />
        </mxCell>
        <mxCell id="gve1T0dqvaqDpXsNanch-2053" value="" style="html=1;verticalLabelPosition=bottom;align=center;labelBackgroundColor=#ffffff;verticalAlign=top;strokeWidth=2;strokeColor=#00CC00;shadow=0;dashed=0;shape=mxgraph.ios7.icons.mail;" vertex="1" parent="1">
          <mxGeometry x="904.38" y="660" width="51.24" height="34.75" as="geometry" />
        </mxCell>
        <mxCell id="gve1T0dqvaqDpXsNanch-2055" value="" style="endArrow=classic;html=1;rounded=0;exitX=0.5;exitY=1;exitDx=0;exitDy=0;" edge="1" parent="1" source="KgjY-8UCAt4k31KfbtkC-2106" target="gve1T0dqvaqDpXsNanch-2054">
          <mxGeometry width="50" height="50" relative="1" as="geometry">
            <mxPoint x="930" y="484" as="sourcePoint" />
            <mxPoint x="928.93" y="651.5" as="targetPoint" />
          </mxGeometry>
        </mxCell>
        <mxCell id="gve1T0dqvaqDpXsNanch-2054" value="&lt;font style=&quot;font-size: 17px;&quot;&gt;&lt;span style=&quot;--tw-border-spacing-x: 0; --tw-border-spacing-y: 0; --tw-translate-x: 0; --tw-translate-y: 0; --tw-rotate: 0; --tw-skew-x: 0; --tw-skew-y: 0; --tw-scale-x: 1; --tw-scale-y: 1; --tw-pan-x: ; --tw-pan-y: ; --tw-pinch-zoom: ; --tw-scroll-snap-strictness: proximity; --tw-ordinal: ; --tw-slashed-zero: ; --tw-numeric-figure: ; --tw-numeric-spacing: ; --tw-numeric-fraction: ; --tw-ring-inset: ; --tw-ring-offset-width: 0px; --tw-ring-offset-color: #fff; --tw-ring-color: rgb(59 130 246 / 0.5); --tw-ring-offset-shadow: 0 0 #0000; --tw-ring-shadow: 0 0 #0000; --tw-shadow: 0 0 #0000; --tw-shadow-colored: 0 0 #0000; --tw-blur: ; --tw-brightness: ; --tw-contrast: ; --tw-grayscale: ; --tw-hue-rotate: ; --tw-invert: ; --tw-saturate: ; --tw-sepia: ; --tw-drop-shadow: ; --tw-backdrop-blur: ; --tw-backdrop-brightness: ; --tw-backdrop-contrast: ; --tw-backdrop-grayscale: ; --tw-backdrop-hue-rotate: ; --tw-backdrop-invert: ; --tw-backdrop-opacity: ; --tw-backdrop-saturate: ; --tw-backdrop-sepia: ; border-color: var(--border-color);&quot;&gt;Sprint Planning Review Meeting with Stakeholders&lt;br&gt;&lt;/span&gt;&lt;i style=&quot;--tw-border-spacing-x: 0; --tw-border-spacing-y: 0; --tw-translate-x: 0; --tw-translate-y: 0; --tw-rotate: 0; --tw-skew-x: 0; --tw-skew-y: 0; --tw-scale-x: 1; --tw-scale-y: 1; --tw-pan-x: ; --tw-pan-y: ; --tw-pinch-zoom: ; --tw-scroll-snap-strictness: proximity; --tw-ordinal: ; --tw-slashed-zero: ; --tw-numeric-figure: ; --tw-numeric-spacing: ; --tw-numeric-fraction: ; --tw-ring-inset: ; --tw-ring-offset-width: 0px; --tw-ring-offset-color: #fff; --tw-ring-color: rgb(59 130 246 / 0.5); --tw-ring-offset-shadow: 0 0 #0000; --tw-ring-shadow: 0 0 #0000; --tw-shadow: 0 0 #0000; --tw-shadow-colored: 0 0 #0000; --tw-blur: ; --tw-brightness: ; --tw-contrast: ; --tw-grayscale: ; --tw-hue-rotate: ; --tw-invert: ; --tw-saturate: ; --tw-sepia: ; --tw-drop-shadow: ; --tw-backdrop-blur: ; --tw-backdrop-brightness: ; --tw-backdrop-contrast: ; --tw-backdrop-grayscale: ; --tw-backdrop-hue-rotate: ; --tw-backdrop-invert: ; --tw-backdrop-opacity: ; --tw-backdrop-saturate: ; --tw-backdrop-sepia: ; border-color: var(--border-color); color: rgb(255, 0, 0);&quot;&gt;&amp;nbsp;Thursday&amp;nbsp;&lt;/i&gt;&lt;br&gt;&lt;/font&gt;" style="text;html=1;align=center;verticalAlign=middle;whiteSpace=wrap;rounded=0;strokeColor=#00CC00;strokeWidth=2;fillColor=#99FF99;" vertex="1" parent="1">
          <mxGeometry x="855" y="510.5" width="150" height="92" as="geometry" />
        </mxCell>
        <mxCell id="gve1T0dqvaqDpXsNanch-2056" value="&lt;span style=&quot;color: rgb(0, 0, 0); font-family: Helvetica; font-size: 17px; font-style: normal; font-variant-ligatures: normal; font-variant-caps: normal; font-weight: 400; letter-spacing: normal; orphans: 2; text-indent: 0px; text-transform: none; widows: 2; word-spacing: 0px; -webkit-text-stroke-width: 0px; text-decoration-thickness: initial; text-decoration-style: initial; text-decoration-color: initial; float: none; display: inline !important;&quot;&gt;Sprint &lt;br&gt;Summary Email&lt;/span&gt;" style="text;whiteSpace=wrap;html=1;align=center;" vertex="1" parent="1">
          <mxGeometry x="865" y="690" width="130" height="40" as="geometry" />
        </mxCell>
      </root>
    </mxGraphModel>
  </diagram>
</mxfile>
